<?xml version="1.0" encoding="UTF-8"?>
<svg width="723px" height="260px" viewBox="0 0 723 260" version="1.1" xmlns="http://www.w3.org/2000/svg" xmlns:xlink="http://www.w3.org/1999/xlink">
    <!-- Generator: Sketch 47.1 (45422) - http://www.bohemiancoding.com/sketch -->
    <title>Composi-Logo</title>
    <desc>Created with Sketch.</desc>
    <defs></defs>
    <g id="Page-1" stroke="none" stroke-width="1" fill="none" fill-rule="evenodd">
        <g id="Composi-Logo">
            <path d="M234.903475,180.525381 L234.903475,242.052804 C234.903475,248.293435 234.253696,250.556438 233.033546,252.83792 C231.813396,255.119401 230.022876,256.909921 227.741395,258.130071 C225.459913,259.350221 223.19691,260 216.956279,260 L147.567568,260 L147.567568,250.903475 C147.567568,242.066919 140.404124,234.903475 131.567568,234.903475 L103.335907,234.903475 C94.4993513,234.903475 87.3359073,242.066919 87.3359073,250.903475 L87.3359073,260 L17.9471964,260 C11.7065652,260 9.44356156,259.350221 7.16208008,258.130071 C4.88059859,256.909921 3.09007857,255.119401 1.86992893,252.83792 C0.649779278,250.556438 2.0572216e-15,248.293435 1.2929647e-15,242.052804 L2.24941867e-15,172.664093 L9.0965251,172.664093 C17.9330811,172.664093 25.0965251,165.500649 25.0965251,156.664093 L25.0965251,128.432432 C25.0965251,119.595876 17.9330811,112.432432 9.0965251,112.432432 L3.55271368e-15,112.432432 L4.03610582e-15,43.0437215 C3.27184892e-15,36.8030903 0.649779278,34.5400867 1.86992893,32.2586052 C3.09007857,29.9771237 4.88059859,28.1866037 7.16208008,26.966454 C9.44356156,25.7463044 11.7065652,25.0965251 17.9471964,25.0965251 L82.2396796,25.0965251 L87.3359073,25.0965251 L87.3359073,16 L87.3359073,16 C87.3359073,7.163444 94.4993513,1.623249e-15 103.335907,0 L131.567568,0 C140.404124,-1.623249e-15 147.567568,7.163444 147.567568,16 L147.567568,25.0965251 L160.572138,25.0965251 L172.799832,25.0965251 L216.956279,25.0965251 C223.19691,25.0965251 225.459913,25.7463044 227.741395,26.966454 C230.022876,28.1866037 231.813396,29.9771237 233.033546,32.2586052 C234.253696,34.5400867 234.903475,36.8030903 234.903475,43.0437215 L234.903475,103.579064 C231.252358,102.787686 227.417881,102.392 223.4,102.392 C216.967968,102.392 211.040027,103.39999 205.616,105.416 C200.191973,107.43201 195.51202,110.191982 191.576,113.696 C187.63998,117.200018 184.568011,121.327976 182.36,126.08 C180.151989,130.832024 179.048,135.943973 179.048,141.416 C179.048,147.46403 180.151989,152.959975 182.36,157.904 C184.568011,162.848025 187.615981,167.095982 191.504,170.648 C195.392019,174.200018 200.023973,176.93599 205.4,178.856 C210.776027,180.77601 216.631968,181.736 222.968,181.736 C227.138196,181.736 231.116671,181.332463 234.903475,180.525381 Z M171.66912,119.087869 L171.66912,75.5233084 C165.711544,73.0409849 160.033314,71.2102987 154.63426,70.031195 C149.235206,68.8520913 143.743147,68.2625483 138.157919,68.2625483 C128.352741,68.2625483 118.98211,70.0932344 110.045745,73.7546617 C101.10938,77.416089 93.2591499,82.504776 86.4948181,89.0208754 C79.7304863,95.5369748 74.3315135,103.29412 70.2977377,112.292543 C66.2639619,121.290966 64.2471042,131.189082 64.2471042,141.98719 C64.2471042,152.785298 66.2949905,162.745472 70.3908244,171.868011 C74.4866583,180.99055 79.9166597,188.871809 86.6809914,195.512025 C93.4453232,202.15224 101.264525,207.302984 110.138832,210.964412 C119.013139,214.625839 128.290684,216.456525 137.971746,216.456525 C142.688161,216.456525 147.466562,215.991096 152.307093,215.060225 C157.147624,214.129354 162.360425,212.67101 167.945653,210.685152 L171.66912,209.381938 L171.66912,166.189724 C162.360407,176.119018 151.872747,181.083591 140.205826,181.083591 C134.86883,181.083591 129.904258,180.090676 125.311959,178.104818 C120.71966,176.118959 116.716974,173.388444 113.303779,169.913191 C109.890584,166.437938 107.222126,162.342165 105.298325,157.62575 C103.374524,152.909336 102.412638,147.758591 102.412638,142.173363 C102.412638,136.712251 103.374524,131.623564 105.298325,126.90715 C107.222126,122.190735 109.859555,118.125991 113.210692,114.712796 C116.561829,111.299601 120.564516,108.600115 125.218872,106.614256 C129.873229,104.628397 134.930888,103.635482 140.391999,103.635482 C152.803617,103.635482 163.22922,108.786227 171.66912,119.087869 Z" id="Combined-Shape" fill="#ffffff"></path>
            <path d="M206.552,141.704 C206.552,144.200012 207.007995,146.47999 207.92,148.544 C208.832005,150.60801 210.031993,152.407992 211.52,153.944 C213.008007,155.480008 214.78399,156.679996 216.848,157.544 C218.91201,158.408004 221.095988,158.84 223.4,158.84 C225.704012,158.84 227.88799,158.408004 229.952,157.544 C232.01601,156.679996 233.791993,155.480008 235.28,153.944 C236.768007,152.407992 237.967995,150.60801 238.88,148.544 C239.792005,146.47999 240.248,144.248012 240.248,141.848 C240.248,139.543988 239.792005,137.36001 238.88,135.296 C237.967995,133.23199 236.768007,131.432008 235.28,129.896 C233.791993,128.359992 232.01601,127.160004 229.952,126.296 C227.88799,125.431996 225.704012,125 223.4,125 C221.095988,125 218.91201,125.431996 216.848,126.296 C214.78399,127.160004 213.008007,128.359992 211.52,129.896 C210.031993,131.432008 208.832005,133.20799 207.92,135.224 C207.007995,137.24001 206.552,139.399988 206.552,141.704 Z M287.728,105.128 L313.792,105.128 L313.792,114.2 C320.896036,107.383966 328.863956,103.976 337.696,103.976 C348.640055,103.976 356.991971,108.583954 362.752,117.8 C368.608029,108.487953 376.959946,103.832 387.808,103.832 C391.264017,103.832 394.527985,104.335995 397.6,105.344 C400.672015,106.352005 403.311989,107.935989 405.52,110.096 C407.728011,112.256011 409.479994,115.063983 410.776,118.52 C412.072006,121.976017 412.72,126.151976 412.72,131.048 L412.72,179 L386.656,179 L386.656,142.568 C386.656,138.823981 386.392003,135.752012 385.864,133.352 C385.335997,130.951988 384.568005,129.080007 383.56,127.736 C382.551995,126.391993 381.376007,125.480002 380.032,125 C378.687993,124.519998 377.248008,124.28 375.712,124.28 C367.359958,124.28 363.184,130.375939 363.184,142.568 L363.184,179 L337.12,179 L337.12,142.568 C337.12,138.823981 336.880002,135.728012 336.4,133.28 C335.919998,130.831988 335.224005,128.888007 334.312,127.448 C333.399995,126.007993 332.224007,125.024003 330.784,124.496 C329.343993,123.967997 327.66401,123.704 325.744,123.704 C324.111992,123.704 322.576007,123.943998 321.136,124.424 C319.695993,124.904002 318.424006,125.839993 317.32,127.232 C316.215994,128.624007 315.352003,130.543988 314.728,132.992 C314.103997,135.440012 313.792,138.63198 313.792,142.568 L313.792,179 L287.728,179 L287.728,105.128 Z M485.064,142.28 C485.064,139.975988 484.656004,137.79201 483.84,135.728 C483.023996,133.66399 481.848008,131.864008 480.312,130.328 C478.775992,128.791992 476.97601,127.568005 474.912,126.656 C472.84799,125.743995 470.616012,125.288 468.216,125.288 C465.911988,125.288 463.75201,125.719996 461.736,126.584 C459.71999,127.448004 457.968007,128.647992 456.48,130.184 C454.991993,131.720008 453.792005,133.51999 452.88,135.584 C451.967995,137.64801 451.512,139.831988 451.512,142.136 C451.512,144.440012 451.943996,146.59999 452.808,148.616 C453.672004,150.63201 454.871992,152.383993 456.408,153.872 C457.944008,155.360007 459.74399,156.559995 461.808,157.472 C463.87201,158.384005 466.055988,158.84 468.36,158.84 C470.664012,158.84 472.82399,158.408004 474.84,157.544 C476.85601,156.679996 478.607993,155.480008 480.096,153.944 C481.584007,152.407992 482.783995,150.63201 483.696,148.616 C484.608005,146.59999 485.064,144.488011 485.064,142.28 Z M452.232,215.864 L426.168,215.864 L426.168,105.128 L452.232,105.128 L452.232,113.336 C457.800028,106.327965 465.383952,102.824 474.984,102.824 C480.264026,102.824 485.183977,103.85599 489.744,105.92 C494.304023,107.98401 498.263983,110.791982 501.624,114.344 C504.984017,117.896018 507.599991,122.071976 509.472,126.872 C511.344009,131.672024 512.28,136.807973 512.28,142.28 C512.28,147.752027 511.344009,152.839976 509.472,157.544 C507.599991,162.248024 505.008017,166.375982 501.696,169.928 C498.383983,173.480018 494.472023,176.26399 489.96,178.28 C485.447977,180.29601 480.552026,181.304 475.272,181.304 C466.055954,181.304 458.376031,178.136032 452.232,171.8 L452.232,215.864 Z M549.736,141.704 C549.736,144.200012 550.191995,146.47999 551.104,148.544 C552.016005,150.60801 553.215993,152.407992 554.704,153.944 C556.192007,155.480008 557.96799,156.679996 560.032,157.544 C562.09601,158.408004 564.279988,158.84 566.584,158.84 C568.888012,158.84 571.07199,158.408004 573.136,157.544 C575.20001,156.679996 576.975993,155.480008 578.464,153.944 C579.952007,152.407992 581.151995,150.60801 582.064,148.544 C582.976005,146.47999 583.432,144.248012 583.432,141.848 C583.432,139.543988 582.976005,137.36001 582.064,135.296 C581.151995,133.23199 579.952007,131.432008 578.464,129.896 C576.975993,128.359992 575.20001,127.160004 573.136,126.296 C571.07199,125.431996 568.888012,125 566.584,125 C564.279988,125 562.09601,125.431996 560.032,126.296 C557.96799,127.160004 556.192007,128.359992 554.704,129.896 C553.215993,131.432008 552.016005,133.20799 551.104,135.224 C550.191995,137.24001 549.736,139.399988 549.736,141.704 Z M522.232,141.416 C522.232,135.943973 523.335989,130.832024 525.544,126.08 C527.752011,121.327976 530.82398,117.200018 534.76,113.696 C538.69602,110.191982 543.375973,107.43201 548.8,105.416 C554.224027,103.39999 560.151968,102.392 566.584,102.392 C572.920032,102.392 578.799973,103.37599 584.224,105.344 C589.648027,107.31201 594.35198,110.047982 598.336,113.552 C602.32002,117.056018 605.415989,121.231976 607.624,126.08 C609.832011,130.928024 610.936,136.279971 610.936,142.136 C610.936,147.992029 609.808011,153.343976 607.552,158.192 C605.295989,163.040024 602.20002,167.215982 598.264,170.72 C594.32798,174.224018 589.600028,176.93599 584.08,178.856 C578.559972,180.77601 572.584032,181.736 566.152,181.736 C559.815968,181.736 553.960027,180.77601 548.584,178.856 C543.207973,176.93599 538.576019,174.200018 534.688,170.648 C530.799981,167.095982 527.752011,162.848025 525.544,157.904 C523.335989,152.959975 522.232,147.46403 522.232,141.416 Z M668.872,124.136 C664.071976,121.639988 659.368023,120.392 654.76,120.392 C652.359988,120.392 650.416007,120.871995 648.928,121.832 C647.439993,122.792005 646.696,124.087992 646.696,125.72 C646.696,126.584004 646.815999,127.279997 647.056,127.808 C647.296001,128.336003 647.823996,128.839998 648.64,129.32 C649.456004,129.800002 650.655992,130.231998 652.24,130.616 C653.824008,131.000002 655.911987,131.479997 658.504,132.056 C665.704036,133.496007 671.079982,136.063982 674.632,139.76 C678.184018,143.456018 679.96,148.183971 679.96,153.944 C679.96,158.264022 679.096009,162.151983 677.368,165.608 C675.639991,169.064017 673.240015,171.967988 670.168,174.32 C667.095985,176.672012 663.400022,178.495994 659.08,179.792 C654.759978,181.088006 650.008026,181.736 644.824,181.736 C634.83995,181.736 625.000048,178.904028 615.304,173.24 L624.808,154.808 C632.104036,159.800025 639.015967,162.296 645.544,162.296 C647.944012,162.296 649.911992,161.768005 651.448,160.712 C652.984008,159.655995 653.752,158.312008 653.752,156.68 C653.752,155.719995 653.632001,154.928003 653.392,154.304 C653.151999,153.679997 652.648004,153.104003 651.88,152.576 C651.111996,152.047997 649.984007,151.568002 648.496,151.136 C647.007993,150.703998 645.064012,150.248002 642.664,149.768 C634.59996,148.135992 628.960016,145.712016 625.744,142.496 C622.527984,139.279984 620.92,134.840028 620.92,129.176 C620.92,125.047979 621.687992,121.328017 623.224,118.016 C624.760008,114.703983 626.967986,111.896012 629.848,109.592 C632.728014,107.287988 636.20798,105.512006 640.288,104.264 C644.36802,103.015994 648.903975,102.392 653.896,102.392 C662.056041,102.392 669.975962,103.975984 677.656,107.144 L668.872,124.136 Z M719.272,105.128 L719.272,179 L693.208,179 L693.208,105.128 L719.272,105.128 Z M691.48,76.76 C691.48,74.7439899 691.863996,72.8480089 692.632,71.072 C693.400004,69.2959911 694.455993,67.7360067 695.8,66.392 C697.144007,65.0479933 698.703991,63.9920038 700.48,63.224 C702.256009,62.4559962 704.15199,62.072 706.168,62.072 C708.18401,62.072 710.079991,62.4559962 711.856,63.224 C713.632009,63.9920038 715.191993,65.0479933 716.536,66.392 C717.880007,67.7360067 718.935996,69.2959911 719.704,71.072 C720.472004,72.8480089 720.856,74.7439899 720.856,76.76 C720.856,78.7760101 720.472004,80.6719911 719.704,82.448 C718.935996,84.2240089 717.880007,85.7839933 716.536,87.128 C715.191993,88.4720067 713.632009,89.5279962 711.856,90.296 C710.079991,91.0640038 708.18401,91.448 706.168,91.448 C704.15199,91.448 702.256009,91.0640038 700.48,90.296 C698.703991,89.5279962 697.144007,88.4720067 695.8,87.128 C694.455993,85.7839933 693.400004,84.2240089 692.632,82.448 C691.863996,80.6719911 691.48,78.7760101 691.48,76.76 Z" id="omposi" fill="#ffffff"></path>
            <path d="M175,141.675964 C175,135.832072 176.179013,130.37273 178.537074,125.297771 C180.895136,120.222813 184.175868,115.81433 188.379368,112.072189 C192.582869,108.330048 197.580859,105.382515 203.373488,103.229503 C209.166117,101.07649 215.496905,100 222.36604,100 C229.132651,100 235.412177,101.050859 241.204806,103.15261 C246.997435,105.25436 252.021056,108.176262 256.275819,111.918403 C260.530581,115.660544 263.836944,120.120289 266.195005,125.297771 C268.553067,130.475254 269.73208,136.190904 269.73208,142.444893 C269.73208,148.698882 268.527436,154.414532 266.118113,159.592015 C263.708789,164.769497 260.402426,169.229242 256.198926,172.971383 C251.995425,176.713524 246.946173,179.609795 241.05102,181.660283 C235.155866,183.710771 228.773818,184.736 221.904682,184.736 C215.138071,184.736 208.884176,183.710771 203.142809,181.660283 C197.401443,179.609795 192.454714,176.687893 188.302475,172.89449 C184.150237,169.101087 180.895136,164.56445 178.537074,159.284443 C176.179013,154.004436 175,148.135001 175,141.675964 Z" id="Path" stroke="#ffffff" stroke-width="10"></path>
        </g>
    </g>
</svg>